<?xml version="1.0" encoding="UTF-8" standalone="no"?>
<!-- Created with Inkscape (http://www.inkscape.org/) -->

<svg
   xmlns:dc="http://purl.org/dc/elements/1.1/"
   xmlns:cc="http://creativecommons.org/ns#"
   xmlns:rdf="http://www.w3.org/1999/02/22-rdf-syntax-ns#"
   xmlns:svg="http://www.w3.org/2000/svg"
   xmlns="http://www.w3.org/2000/svg"
   xmlns:sodipodi="http://sodipodi.sourceforge.net/DTD/sodipodi-0.dtd"
   xmlns:inkscape="http://www.inkscape.org/namespaces/inkscape"
   width="54mm"
   height="54mm"
   viewBox="0 0 53.999998 53.999998"
   version="1.1"
   id="svg2250"
   inkscape:version="0.92.2 5c3e80d, 2017-08-06"
   sodipodi:docname="sticker-klein.ink.svg"
   inkscape:export-filename="/run/media/scosh/Project Files/Git/foss-ag/design_playground/sticker/sticker-klein.png"
   inkscape:export-xdpi="300.09631"
   inkscape:export-ydpi="300.09631">
  <defs
     id="defs2244" />
  <sodipodi:namedview
     id="base"
     pagecolor="#ffffff"
     bordercolor="#666666"
     borderopacity="1.0"
     inkscape:pageopacity="0.0"
     inkscape:pageshadow="2"
     inkscape:zoom="2.5888141"
     inkscape:cx="84.998343"
     inkscape:cy="101.92589"
     inkscape:document-units="mm"
     inkscape:current-layer="layer2"
     showgrid="false"
     borderlayer="true"
     inkscape:showpageshadow="false"
     fit-margin-top="0"
     fit-margin-left="0"
     fit-margin-right="0"
     fit-margin-bottom="0"
     inkscape:snap-bbox="true"
     inkscape:bbox-paths="true"
     inkscape:bbox-nodes="true"
     inkscape:snap-bbox-edge-midpoints="true"
     inkscape:snap-bbox-midpoints="true"
     inkscape:object-paths="true"
     inkscape:snap-intersection-paths="true"
     inkscape:snap-smooth-nodes="true"
     inkscape:snap-midpoints="true"
     inkscape:snap-object-midpoints="true"
     inkscape:snap-center="true"
     inkscape:snap-text-baseline="true"
     inkscape:snap-page="true"
     inkscape:window-width="1900"
     inkscape:window-height="1129"
     inkscape:window-x="10"
     inkscape:window-y="38"
     inkscape:window-maximized="1"
     inkscape:snap-global="true"
     units="mm"
     inkscape:measure-start="0,0"
     inkscape:measure-end="0,0"
     showguides="true"
     inkscape:pagecheckerboard="true"
     inkscape:guide-bbox="true">
    <sodipodi:guide
       position="6.9999999,37.688762"
       orientation="1,0"
       id="guide819"
       inkscape:locked="false"
       inkscape:label=""
       inkscape:color="rgb(255,0,100)" />
    <sodipodi:guide
       position="46.999973,33.546971"
       orientation="1,0"
       id="guide821"
       inkscape:locked="false"
       inkscape:label=""
       inkscape:color="rgb(255,0,100)" />
    <sodipodi:guide
       position="26.999986,46.999972"
       orientation="0,1"
       id="guide823"
       inkscape:locked="false"
       inkscape:label=""
       inkscape:color="rgb(255,0,100)" />
    <sodipodi:guide
       position="26.999986,6.9999991"
       orientation="0,1"
       id="guide825"
       inkscape:locked="false"
       inkscape:label=""
       inkscape:color="rgb(255,0,100)" />
    <sodipodi:guide
       position="11,33.475111"
       orientation="1,0"
       id="guide843"
       inkscape:locked="false"
       inkscape:label=""
       inkscape:color="rgb(255,224,0)" />
    <sodipodi:guide
       position="42.999973,36.596334"
       orientation="1,0"
       id="guide845"
       inkscape:locked="false"
       inkscape:label=""
       inkscape:color="rgb(255,224,0)" />
    <sodipodi:guide
       position="11,42.999972"
       orientation="0,1"
       id="guide847"
       inkscape:locked="false"
       inkscape:label=""
       inkscape:color="rgb(255,224,0)" />
    <sodipodi:guide
       position="24.033413,10.999999"
       orientation="0,1"
       id="guide849"
       inkscape:locked="false"
       inkscape:label=""
       inkscape:color="rgb(255,224,0)" />
  </sodipodi:namedview>
  <metadata
     id="metadata2247">
    <rdf:RDF>
      <cc:Work
         rdf:about="">
        <dc:format>image/svg+xml</dc:format>
        <dc:type
           rdf:resource="http://purl.org/dc/dcmitype/StillImage" />
        <dc:title />
        <cc:license
           rdf:resource="http://creativecommons.org/licenses/by-nc-sa/4.0/" />
      </cc:Work>
      <cc:License
         rdf:about="http://creativecommons.org/licenses/by-nc-sa/4.0/">
        <cc:permits
           rdf:resource="http://creativecommons.org/ns#Reproduction" />
        <cc:permits
           rdf:resource="http://creativecommons.org/ns#Distribution" />
        <cc:requires
           rdf:resource="http://creativecommons.org/ns#Notice" />
        <cc:requires
           rdf:resource="http://creativecommons.org/ns#Attribution" />
        <cc:prohibits
           rdf:resource="http://creativecommons.org/ns#CommercialUse" />
        <cc:permits
           rdf:resource="http://creativecommons.org/ns#DerivativeWorks" />
        <cc:requires
           rdf:resource="http://creativecommons.org/ns#ShareAlike" />
      </cc:License>
    </rdf:RDF>
  </metadata>
  <g
     inkscape:groupmode="layer"
     id="layer2"
     inkscape:label="logo_basic"
     style="display:inline"
     transform="translate(0,-307.90549)">
    <rect
       style="display:inline;opacity:1;fill:#262626;fill-opacity:1;stroke:none;stroke-width:0.1054687"
       id="rect2982-4"
       width="53.999973"
       height="53.999973"
       x="-5.1537705e-07"
       y="307.90549"
       inkscape:export-xdpi="300"
       inkscape:export-ydpi="300"
       inkscape:label="background" />
    <circle
       style="display:inline;opacity:1;vector-effect:none;fill:#262626;fill-opacity:1;stroke:none;stroke-width:2.45855594;stroke-linecap:butt;stroke-linejoin:miter;stroke-miterlimit:4;stroke-dasharray:none;stroke-dashoffset:0;stroke-opacity:1"
       id="path852"
       cx="26.999958"
       cy="334.90549"
       r="19.999958" />
    <g
       style="display:inline"
       id="g883"
       transform="translate(-6.4388655e-7,0.18837332)">
      <path
         style="fill:#14b967;fill-opacity:1;stroke:none;stroke-width:0.07812492"
         inkscape:label="star_left"
         sodipodi:nodetypes="ccccccccccccccccccccccccccccccc"
         inkscape:connector-curvature="0"
         d="m 15.666485,343.96216 c 1.022851,0.59054 2.045702,1.18109 3.068553,1.77163 l 0.423102,-0.73283 c 0.532364,-0.92203 0.927588,-1.92485 1.309001,-2.93903 0.38148,1.01431 0.776542,2.01726 1.30896,2.93929 l 0.423068,0.73273 c 1.022898,-0.59045 2.045714,-1.18102 3.068535,-1.77159 l -0.423068,-0.73273 c -0.525088,-0.90947 -1.18508,-1.74271 -1.854954,-2.58255 1.062224,0.1602 2.113923,0.31546 3.16408,0.31538 l 0.846172,-7e-5 c 7.6e-5,-1.18108 3.5e-5,-2.36216 -1.4e-5,-3.54324 l -0.846095,-10e-6 c -1.064721,-1e-5 -2.130931,0.15918 -3.19996,0.33569 0.687639,-0.83769 1.358643,-1.68132 1.890936,-2.60343 l 0.423102,-0.73283 c -1.022852,-0.59054 -2.045702,-1.18108 -3.068553,-1.77163 l -0.423102,0.73284 c -0.53236,0.92207 -0.927517,1.92491 -1.309139,2.93932 -0.381549,-1.01413 -0.77692,-2.01686 -1.309305,-2.93895 l -0.422836,-0.73311 c -1.022898,0.59044 -2.045717,1.18102 -3.06854,1.77159 l 0.422993,0.73286 c 0.5251,0.90956 1.185324,1.74288 1.855366,2.58277 -1.062406,-0.16032 -2.113998,-0.31533 -3.164302,-0.31531 l -0.846167,8e-5 c -9.4e-5,1.18108 -3.2e-5,2.36215 2e-5,3.54323 l 0.846091,2e-5 c 1.064684,3e-5 2.130765,-0.15916 3.199957,-0.33607 -0.687638,0.83739 -1.35844,1.68102 -1.62462,2.14207 z"
         id="path6107-4-3" />
      <path
         style="fill:#808080;fill-opacity:1;stroke:none;stroke-width:0.07812492"
         inkscape:label="star_right"
         sodipodi:nodetypes="ccccccccccccccccccccccccccccccc"
         inkscape:connector-curvature="0"
         d="m 28.732239,343.96216 c 1.022851,0.59054 2.045702,1.18109 3.068553,1.77163 l 0.423101,-0.73283 c 0.532365,-0.92203 0.927589,-1.92485 1.309002,-2.93903 0.38148,1.01431 0.776542,2.01726 1.308959,2.93929 l 0.423069,0.73273 c 1.022897,-0.59045 2.045715,-1.18102 3.068536,-1.77159 l -0.423068,-0.73273 c -0.525088,-0.90947 -1.185081,-1.74271 -1.854955,-2.58255 1.062223,0.1602 2.113923,0.31546 3.164081,0.31538 l 0.846169,-7e-5 c 7.9e-5,-1.18108 3.6e-5,-2.36216 -1.1e-5,-3.54324 l -0.846095,-10e-6 c -1.064722,-1e-5 -2.130931,0.15918 -3.199962,0.33569 0.687641,-0.83769 1.358643,-1.68132 1.890938,-2.60343 l 0.423101,-0.73283 c -1.022853,-0.59054 -2.045701,-1.18108 -3.068552,-1.77163 l -0.423102,0.73284 c -0.53236,0.92207 -0.927518,1.92491 -1.309139,2.93932 -0.38155,-1.01413 -0.776919,-2.01686 -1.309306,-2.93895 l -0.422837,-0.73311 c -1.022895,0.59044 -2.045715,1.18102 -3.068538,1.77159 l 0.422992,0.73286 c 0.525101,0.90956 1.185326,1.74288 1.855366,2.58277 -1.062407,-0.16032 -2.113997,-0.31533 -3.164302,-0.31531 l -0.846166,8e-5 c -7.9e-5,1.18108 -3.4e-5,2.36215 2e-5,3.54323 l 0.846089,2e-5 c 1.064685,3e-5 2.130766,-0.15916 3.199958,-0.33607 -0.687638,0.83739 -1.35844,1.68102 -1.62462,2.14207 z"
         id="path6099-3-7" />
      <path
         style="fill:#b3b3b3;fill-opacity:1;stroke:none;stroke-width:0.07812492"
         sodipodi:nodetypes="ccccccccccccccccccccccccccccccc"
         inkscape:connector-curvature="0"
         d="m 22.199156,332.64658 c 1.022852,0.59055 2.045703,1.18109 3.068554,1.77164 l 0.423101,-0.73284 c 0.532365,-0.92203 0.927588,-1.92484 1.309001,-2.93902 0.38148,1.01431 0.776543,2.01726 1.308962,2.93929 l 0.423068,0.73272 c 1.022895,-0.59044 2.045712,-1.18102 3.068534,-1.77159 l -0.423069,-0.73272 c -0.525087,-0.90948 -1.185079,-1.74271 -1.854954,-2.58256 1.062225,0.16021 2.113925,0.31546 3.16408,0.31539 l 0.846173,-8e-5 c 7.6e-5,-1.18108 3.4e-5,-2.36215 -1.5e-5,-3.54323 l -0.846095,-2e-5 c -1.064719,0 -2.13093,0.15918 -3.199959,0.33569 0.687639,-0.83768 1.358641,-1.68131 1.890936,-2.60342 l 0.423101,-0.73283 c -1.022851,-0.59054 -2.045701,-1.18109 -3.068552,-1.77163 l -0.423102,0.73283 c -0.53236,0.92208 -0.927516,1.92491 -1.309139,2.93933 -0.38155,-1.01413 -0.77692,-2.01687 -1.309305,-2.93895 l -0.422836,-0.73312 c -1.022898,0.59044 -2.045717,1.18103 -3.068541,1.7716 l 0.422994,0.73285 c 0.5251,0.90957 1.185324,1.74288 1.855366,2.58278 -1.062406,-0.16032 -2.113998,-0.31534 -3.164302,-0.31532 l -0.846167,8e-5 c -7.9e-5,1.18108 -3.2e-5,2.36216 2e-5,3.54323 l 0.84609,3e-5 c 1.064684,2e-5 2.130765,-0.15917 3.199957,-0.33608 -0.687637,0.8374 -1.35844,1.68103 -1.624619,2.14207 z"
         id="path6115-9-1"
         inkscape:label="star_top" />
    </g>
    <g
       transform="translate(-6.4388655e-7,307.90548)"
       aria-label="foss-ag.de"
       style="font-style:italic;font-variant:normal;font-weight:normal;font-stretch:normal;font-size:33.73455429px;line-height:1.01203668px;font-family:Hack;-inkscape-font-specification:'Hack Italic';font-variant-ligatures:normal;font-variant-position:normal;font-variant-caps:normal;font-variant-numeric:normal;font-variant-alternates:normal;font-feature-settings:normal;text-indent:0;text-align:start;text-decoration:none;text-decoration-line:none;text-decoration-style:solid;text-decoration-color:#000000;letter-spacing:0px;word-spacing:0px;text-transform:none;writing-mode:lr-tb;direction:ltr;text-orientation:mixed;dominant-baseline:auto;baseline-shift:baseline;text-anchor:start;white-space:normal;shape-padding:0;display:inline;opacity:1;vector-effect:none;fill:#ffffff;fill-opacity:1;stroke:none;stroke-width:0.01265046;stroke-linecap:butt;stroke-linejoin:miter;stroke-miterlimit:4;stroke-dasharray:none;stroke-dashoffset:0;stroke-opacity:1"
       id="text892">
      <path
         inkscape:connector-curvature="0"
         d="m 22.743906,40.458778 q -0.02997,-0.0155 -0.07545,-0.02687 -0.04547,-0.01137 -0.08165,-0.01137 -0.08992,0 -0.125057,0.04651 -0.03514,0.04547 -0.03514,0.179834 v 0.10542 h 0.240813 v 0.148828 h -0.240813 v 0.935344 H 22.248846 V 40.901128 H 22.089682 V 40.7523 h 0.159164 v -0.10542 q 0,-0.19637 0.07338,-0.288354 0.07441,-0.09302 0.260449,-0.09302 0.116789,0 0.209807,0.04031 z"
         style="font-style:normal;font-variant:normal;font-weight:normal;font-stretch:normal;font-size:2.11666656px;line-height:1.01203668px;font-family:'Clear Sans';-inkscape-font-specification:'Clear Sans';fill:#ffffff;fill-opacity:1;stroke-width:0.01265046"
         id="path835" />
      <path
         inkscape:connector-curvature="0"
         d="m 23.7733,41.29697 q 0,0.282153 -0.121956,0.426847 -0.120923,0.144694 -0.353467,0.144694 -0.232544,0 -0.355534,-0.142627 -0.12299,-0.14366 -0.12299,-0.428914 0,-0.290422 0.12299,-0.433049 0.124024,-0.142627 0.355534,-0.142627 0.233578,0 0.3545,0.145728 0.120923,0.144694 0.120923,0.429948 z m -0.183968,0 q 0,-0.221175 -0.07338,-0.321428 -0.07235,-0.100252 -0.218075,-0.100252 -0.149862,0 -0.222209,0.101286 -0.07235,0.100252 -0.07235,0.320394 0,0.211873 0.06925,0.314192 0.07028,0.10232 0.225309,0.10232 0.147795,0 0.219108,-0.101286 0.07235,-0.101286 0.07235,-0.315226 z"
         style="font-style:normal;font-variant:normal;font-weight:normal;font-stretch:normal;font-size:2.11666656px;line-height:1.01203668px;font-family:'Clear Sans';-inkscape-font-specification:'Clear Sans';fill:#ffffff;fill-opacity:1;stroke-width:0.01265046"
         id="path837" />
      <path
         inkscape:connector-curvature="0"
         d="m 24.809929,41.543983 q 0,0.151929 -0.107487,0.238745 -0.107487,0.08578 -0.305924,0.08578 -0.135392,0 -0.242879,-0.05064 -0.107487,-0.05168 -0.157097,-0.144694 l 0.142627,-0.08682 q 0.08165,0.131258 0.262516,0.131258 0.117823,0 0.1757,-0.04444 0.05891,-0.04548 0.05891,-0.121956 0,-0.04548 -0.02067,-0.07338 -0.02067,-0.02894 -0.06408,-0.04961 -0.04341,-0.0217 -0.177767,-0.05788 -0.19327,-0.04444 -0.272851,-0.12299 -0.07855,-0.07855 -0.07855,-0.208773 0,-0.14366 0.103352,-0.230476 0.103353,-0.08682 0.286288,-0.08682 0.141593,0 0.237711,0.05581 0.09612,0.05581 0.14056,0.134358 l -0.141593,0.08682 q -0.08475,-0.127124 -0.240812,-0.127124 -0.08888,0 -0.150896,0.03927 -0.06098,0.03927 -0.06098,0.121956 0,0.07338 0.05374,0.106454 0.05374,0.03307 0.168465,0.06098 0.183968,0.04754 0.254248,0.08888 0.07028,0.04134 0.103353,0.10232 0.03411,0.05994 0.03411,0.152962 z"
         style="font-style:normal;font-variant:normal;font-weight:normal;font-stretch:normal;font-size:2.11666656px;line-height:1.01203668px;font-family:'Clear Sans';-inkscape-font-specification:'Clear Sans';fill:#ffffff;fill-opacity:1;stroke-width:0.01265046"
         id="path839" />
      <path
         inkscape:connector-curvature="0"
         d="m 25.83519,41.543983 q 0,0.151929 -0.107487,0.238745 -0.107487,0.08578 -0.305925,0.08578 -0.135392,0 -0.242879,-0.05064 -0.107487,-0.05168 -0.157096,-0.144694 l 0.142627,-0.08682 q 0.08165,0.131258 0.262516,0.131258 0.117822,0 0.1757,-0.04444 0.05891,-0.04548 0.05891,-0.121956 0,-0.04548 -0.02067,-0.07338 -0.02067,-0.02894 -0.06408,-0.04961 -0.04341,-0.0217 -0.177767,-0.05788 -0.19327,-0.04444 -0.272852,-0.12299 -0.07855,-0.07855 -0.07855,-0.208773 0,-0.14366 0.103353,-0.230476 0.103353,-0.08682 0.286287,-0.08682 0.141594,0 0.237712,0.05581 0.09612,0.05581 0.14056,0.134358 l -0.141594,0.08682 q -0.08475,-0.127124 -0.240812,-0.127124 -0.08888,0 -0.150895,0.03927 -0.06098,0.03927 -0.06098,0.121956 0,0.07338 0.05374,0.106454 0.05374,0.03307 0.168465,0.06098 0.183968,0.04754 0.254248,0.08888 0.07028,0.04134 0.103353,0.10232 0.03411,0.05994 0.03411,0.152962 z"
         style="font-style:normal;font-variant:normal;font-weight:normal;font-stretch:normal;font-size:2.11666656px;line-height:1.01203668px;font-family:'Clear Sans';-inkscape-font-specification:'Clear Sans';fill:#ffffff;fill-opacity:1;stroke-width:0.01265046"
         id="path841" />
      <path
         inkscape:connector-curvature="0"
         d="m 26.04913,41.381719 v -0.177767 h 0.643888 v 0.177767 z"
         style="font-style:normal;font-variant:normal;font-weight:normal;font-stretch:normal;font-size:2.11666656px;line-height:1.01203668px;font-family:'Clear Sans';-inkscape-font-specification:'Clear Sans';fill:#ffffff;fill-opacity:1;stroke-width:0.01265046"
         id="path843" />
      <path
         inkscape:connector-curvature="0"
         d="m 27.591155,41.836472 v -0.135393 q -0.08268,0.07235 -0.166398,0.11989 -0.08372,0.04754 -0.189136,0.04754 -0.155029,0 -0.239779,-0.09405 -0.08372,-0.09508 -0.08372,-0.242879 0,-0.111621 0.04341,-0.185002 0.04444,-0.07441 0.127124,-0.116789 0.08372,-0.04341 0.241845,-0.06201 l 0.266651,-0.02377 v -0.05271 q 0,-0.125057 -0.07028,-0.170532 -0.06925,-0.04548 -0.192237,-0.04548 -0.109554,0 -0.169498,0.03824 -0.05891,0.03824 -0.08475,0.08268 l -0.145727,-0.08888 q 0.04961,-0.08992 0.150895,-0.137459 0.102319,-0.04858 0.253215,-0.04858 0.233577,0 0.334863,0.08475 0.101286,0.08475 0.101286,0.293522 v 0.736906 z m 0,-0.549838 -0.173633,0.01654 q -0.176733,0.0155 -0.24908,0.06925 -0.07235,0.05271 -0.07235,0.15503 0,0.09715 0.04858,0.139526 0.04858,0.04237 0.145728,0.04237 0.04031,0 0.07958,-0.01447 0.03927,-0.0155 0.07751,-0.03721 0.03824,-0.02274 0.07338,-0.05064 0.03617,-0.02894 0.07028,-0.05581 z"
         style="font-style:normal;font-variant:normal;font-weight:normal;font-stretch:normal;font-size:2.11666656px;line-height:1.01203668px;font-family:'Clear Sans';-inkscape-font-specification:'Clear Sans';fill:#ffffff;fill-opacity:1;stroke-width:0.01265046"
         id="path845" />
      <path
         inkscape:connector-curvature="0"
         d="m 28.974016,41.8127 q 0,0.218075 -0.108521,0.324528 -0.107487,0.107487 -0.3576,0.107487 -0.238746,0 -0.393775,-0.101285 l 0.06615,-0.143661 q 0.139526,0.09715 0.327629,0.09715 0.151928,0 0.219108,-0.06408 0.06821,-0.06305 0.06821,-0.208773 v -0.127124 q -0.06098,0.05891 -0.145727,0.09922 -0.08475,0.04031 -0.183968,0.04031 -0.199471,0 -0.303858,-0.141594 -0.104386,-0.142627 -0.104386,-0.411344 0,-0.264584 0.116789,-0.413412 0.116789,-0.148828 0.31936,-0.148828 0.164331,0 0.30179,0.11989 V 40.7523 h 0.178801 z m -0.178801,-0.816487 q -0.141593,-0.116789 -0.279052,-0.116789 -0.135392,0 -0.205672,0.10542 -0.06925,0.10542 -0.06925,0.294556 0,0.208772 0.06511,0.303857 0.06511,0.09405 0.19327,0.09405 0.148828,0 0.295589,-0.139526 z"
         style="font-style:normal;font-variant:normal;font-weight:normal;font-stretch:normal;font-size:2.11666656px;line-height:1.01203668px;font-family:'Clear Sans';-inkscape-font-specification:'Clear Sans';fill:#ffffff;fill-opacity:1;stroke-width:0.01265046"
         id="path847" />
      <path
         inkscape:connector-curvature="0"
         d="m 29.564161,41.735186 q 0,0.06511 -0.03101,0.09095 -0.02997,0.02481 -0.09612,0.02481 -0.07338,0 -0.09922,-0.02997 -0.0248,-0.03101 -0.0248,-0.08578 0,-0.06201 0.02791,-0.08888 0.02894,-0.0279 0.09612,-0.0279 0.07028,0 0.09819,0.0279 0.02894,0.02687 0.02894,0.08888 z"
         style="font-style:normal;font-variant:normal;font-weight:normal;font-stretch:normal;font-size:2.11666656px;line-height:1.01203668px;font-family:'Clear Sans';-inkscape-font-specification:'Clear Sans';fill:#ffffff;fill-opacity:1;stroke-width:0.01265046"
         id="path849" />
      <path
         inkscape:connector-curvature="0"
         d="m 30.543946,41.836472 v -0.107487 q -0.06098,0.05891 -0.146761,0.09922 -0.08578,0.04031 -0.182934,0.04031 -0.195337,0 -0.301791,-0.146761 -0.106453,-0.147795 -0.106453,-0.418579 0,-0.265617 0.115755,-0.423747 0.115755,-0.15813 0.320394,-0.15813 0.164331,0 0.30179,0.11989 v -0.543637 h 0.178801 v 1.538925 z m 0,-0.840259 q -0.141593,-0.116789 -0.279053,-0.116789 -0.120922,0 -0.198437,0.102319 -0.07648,0.101286 -0.07648,0.317294 0,0.410311 0.258382,0.410311 0.08475,0 0.16123,-0.04237 0.07752,-0.04237 0.134359,-0.09715 z"
         style="font-style:normal;font-variant:normal;font-weight:normal;font-stretch:normal;font-size:2.11666656px;line-height:1.01203668px;font-family:'Clear Sans';-inkscape-font-specification:'Clear Sans';fill:#ffffff;fill-opacity:1;stroke-width:0.01265046"
         id="path851" />
      <path
         inkscape:connector-curvature="0"
         d="m 31.205405,41.315573 q 0,0.214974 0.07338,0.306958 0.07338,0.09095 0.235645,0.09095 0.07235,0 0.127124,-0.02997 0.05478,-0.03101 0.10542,-0.09922 l 0.146761,0.09095 q -0.06201,0.09302 -0.150896,0.143661 -0.08888,0.04961 -0.240812,0.04961 -0.241845,0 -0.361735,-0.14056 -0.118856,-0.14056 -0.118856,-0.42478 0,-0.297656 0.115756,-0.43925 0.116788,-0.142627 0.351399,-0.142627 0.21084,0 0.31626,0.121957 0.10542,0.120922 0.10542,0.373103 v 0.09922 z m 0.531233,-0.139526 q -0.0021,-0.145728 -0.06201,-0.226343 -0.05891,-0.08061 -0.192237,-0.08061 -0.127124,0 -0.191203,0.07338 -0.06305,0.07235 -0.08372,0.233578 z"
         style="font-style:normal;font-variant:normal;font-weight:normal;font-stretch:normal;font-size:2.11666656px;line-height:1.01203668px;font-family:'Clear Sans';-inkscape-font-specification:'Clear Sans';fill:#ffffff;fill-opacity:1;stroke-width:0.01265046"
         id="path853" />
    </g>
  </g>
</svg>
